<?xml version="1.0" encoding="utf-8"?>
<!-- Generator: Adobe Illustrator 16.0.0, SVG Export Plug-In . SVG Version: 6.00 Build 0)  -->
<!DOCTYPE svg PUBLIC "-//W3C//DTD SVG 1.1//EN" "http://www.w3.org/Graphics/SVG/1.1/DTD/svg11.dtd">
<svg version="1.1" id="Layer_1" xmlns="http://www.w3.org/2000/svg" xmlns:xlink="http://www.w3.org/1999/xlink" x="0px" y="0px"
	 width="30px" height="30px" viewBox="0 0 30 30" enable-background="new 0 0 30 30" xml:space="preserve">
<g>
	<g>
		<path d="M23.818,23.002L7.382,22.833c-3.379-0.086-6.098-3.096-6.329-7l-0.001-0.361c0-2.544,0.624-8.463,6.404-8.463h14.849
			c2.962-0.085,4.013,1.153,4.383,2.215c0.402,1.15,0.117,2.545-0.419,3.43c1.979,0.687,2.798,2.933,2.728,4.867
			C28.843,20.853,26.811,23.002,23.818,23.002z M22.604,7.655c-0.095,0-0.192,0.001-0.293,0.004H7.456
			c-5.09,0-5.849,4.895-5.849,7.812v0.339c0.21,3.543,2.697,6.292,5.784,6.371l16.431,0.17c2.712,0,4.483-1.864,4.623-4.862
			c0.067-1.871-0.747-3.935-2.723-4.323c0,0-0.001,0-0.002,0L7.817,13.169c-1.048,0-1.517,0.97-1.517,1.929
			c0,1.002,0.52,2.081,1.661,2.081h15.569c0.154,0,0.277,0.146,0.277,0.325c0,0.182-0.123,0.326-0.277,0.326H7.96
			c-1.454,0-2.215-1.374-2.215-2.732c0-1.243,0.648-2.581,2.072-2.581h17.831c0.485-0.614,0.914-1.938,0.528-3.048
			C25.76,8.279,24.527,7.655,22.604,7.655z"/>
	</g>
	<g>
		<path stroke="#000000" stroke-linecap="round" stroke-linejoin="round" stroke-miterlimit="10" d="M2.05,17.505"/>
	</g>
</g>
</svg>
