<?xml version="1.0" encoding="utf-8"?>
<!-- Generator: Adobe Illustrator 16.0.0, SVG Export Plug-In . SVG Version: 6.00 Build 0)  -->
<!DOCTYPE svg PUBLIC "-//W3C//DTD SVG 1.1//EN" "http://www.w3.org/Graphics/SVG/1.1/DTD/svg11.dtd">
<svg version="1.1" id="Layer_1" xmlns="http://www.w3.org/2000/svg" xmlns:xlink="http://www.w3.org/1999/xlink" x="0px" y="0px"
	 width="30px" height="30px" viewBox="0 0 30 30" enable-background="new 0 0 30 30" xml:space="preserve">
<path d="M11.201,1.426c-0.168,0-0.304,0.137-0.304,0.306v5.912H7.633c-0.168,0-0.305,0.136-0.305,0.306v4.48
	c0.008,2.99,1.649,5.737,4.279,7.158v0.878c-0.003,2.023,1.551,3.708,3.568,3.87v3.939c0,0.169,0.137,0.307,0.305,0.307
	c0.17,0,0.305-0.138,0.305-0.307v-3.939c2.012-0.16,3.564-1.836,3.568-3.855v-0.893c2.635-1.423,4.277-4.176,4.279-7.171V7.949
	c0-0.169-0.137-0.306-0.306-0.306h-3.263V1.731c0-0.169-0.137-0.306-0.305-0.306c-0.169,0-0.307,0.137-0.307,0.306v5.912h-7.946
	V1.731C11.507,1.563,11.369,1.426,11.201,1.426z M18.742,20.48c-0.057,1.801-1.561,3.217-3.36,3.16
	c-1.722-0.053-3.106-1.437-3.159-3.16v-0.586c2.076,0.91,4.441,0.91,6.52,0V20.48z M23.021,8.254v4.175
	c0.084,4.164-3.224,7.607-7.387,7.691c-4.164,0.084-7.607-3.223-7.692-7.388c-0.002-0.101-0.002-0.201,0-0.303V8.254H23.021z"/>
</svg>
