<?xml version="1.0" encoding="utf-8"?>
<!-- Generator: Adobe Illustrator 16.0.0, SVG Export Plug-In . SVG Version: 6.00 Build 0)  -->
<!DOCTYPE svg PUBLIC "-//W3C//DTD SVG 1.1//EN" "http://www.w3.org/Graphics/SVG/1.1/DTD/svg11.dtd">
<svg version="1.1" id="Layer_1" xmlns="http://www.w3.org/2000/svg" xmlns:xlink="http://www.w3.org/1999/xlink" x="0px" y="0px"
	 width="30px" height="30px" viewBox="0 0 30 30" enable-background="new 0 0 30 30" xml:space="preserve">
<g transform="translate(0,-952.36218)">
	<path d="M9.733,956.821c-0.88,0-1.598,0.7-1.598,1.559v19.232c0,0.859,0.718,1.56,1.598,1.56h10.648c0.88,0,1.598-0.7,1.598-1.56
		V958.38c0-0.859-0.718-1.559-1.598-1.559H9.733z M9.733,957.34h10.648c0.594,0,1.065,0.46,1.065,1.04v1.04H8.667v-1.04
		C8.667,957.8,9.14,957.34,9.733,957.34z M8.667,959.939h12.78v15.074H8.667V959.939L8.667,959.939z M8.667,975.533h12.78v2.079
		c0,0.58-0.472,1.041-1.065,1.041H9.733c-0.594,0-1.066-0.461-1.066-1.041V975.533z"/>
</g>
</svg>
