<?xml version="1.0" encoding="utf-8"?>
<!-- Generator: Adobe Illustrator 16.0.0, SVG Export Plug-In . SVG Version: 6.00 Build 0)  -->
<!DOCTYPE svg PUBLIC "-//W3C//DTD SVG 1.1//EN" "http://www.w3.org/Graphics/SVG/1.1/DTD/svg11.dtd">
<svg version="1.1" id="Layer_1" xmlns="http://www.w3.org/2000/svg" xmlns:xlink="http://www.w3.org/1999/xlink" x="0px" y="0px"
	 width="30px" height="30px" viewBox="0 0 30 30" enable-background="new 0 0 30 30" xml:space="preserve">
<path d="M12.345,27.146h6.084c0.631,0,1.144-0.512,1.144-1.143V10.907c0-0.541-0.185-0.998-0.554-1.908
	c-0.145-0.354-0.317-0.78-0.521-1.314c-0.229-0.598-0.773-1.02-1.396-1.105V5.565c0.346-0.042,0.616-0.335,0.616-0.693V3.317
	c0-0.386-0.314-0.701-0.701-0.701h-3.258c-0.386,0-0.701,0.314-0.701,0.701v1.556c0,0.358,0.27,0.65,0.616,0.693V6.58
	c-0.624,0.085-1.168,0.508-1.396,1.105c-0.204,0.534-0.378,0.96-0.521,1.313c-0.369,0.911-0.555,1.368-0.555,1.909v15.097
	C11.202,26.634,11.715,27.146,12.345,27.146z M13.671,3.317c0-0.048,0.04-0.087,0.088-0.087h3.258c0.048,0,0.088,0.039,0.088,0.087
	v1.556c0,0.049-0.04,0.088-0.088,0.088h-3.258c-0.048,0-0.088-0.039-0.088-0.088V3.317z M11.815,10.907
	c0-0.421,0.16-0.815,0.51-1.679c0.145-0.356,0.32-0.787,0.526-1.326c0.166-0.435,0.591-0.726,1.057-0.726h0.072
	c0.17,0,0.307-0.138,0.307-0.307V5.574h2.2V6.87c0,0.169,0.138,0.307,0.307,0.307h0.073c0.467,0,0.891,0.292,1.057,0.726
	c0.207,0.539,0.381,0.97,0.525,1.327c0.351,0.863,0.51,1.256,0.51,1.678v15.097c0,0.292-0.237,0.53-0.529,0.53h-6.084
	c-0.292,0-0.53-0.238-0.53-0.53V10.907z"/>
</svg>
